<svg width="11" height="24" viewBox="0 0 11 24" fill="none" xmlns="http://www.w3.org/2000/svg">
<path d="M8 14.76V3.5C8 2.83696 7.73661 2.20107 7.26777 1.73223C6.79893 1.26339 6.16304 1 5.5 1C4.83696 1 4.20107 1.26339 3.73223 1.73223C3.26339 2.20107 3 2.83696 3 3.5V14.76C2.19728 15.2963 1.58832 16.0766 1.26307 16.9856C0.937822 17.8946 0.91352 18.8841 1.19376 19.8079C1.47399 20.7317 2.04391 21.541 2.81934 22.1161C3.59476 22.6912 4.53459 23.0017 5.5 23.0017C6.46541 23.0017 7.40524 22.6912 8.18066 22.1161C8.95609 21.541 9.52601 20.7317 9.80624 19.8079C10.0865 18.8841 10.0622 17.8946 9.73693 16.9856C9.41168 16.0766 8.80272 15.2963 8 14.76Z" stroke="black" stroke-linecap="round" stroke-linejoin="round"/>
<circle cx="5.5" cy="18.5" r="3.5" fill="#0EAC00"/>
<ellipse cx="7.24403" cy="19.5272" rx="0.5" ry="1.5" transform="rotate(33.4374 7.24403 19.5272)" fill="#E5E5E5"/>
</svg>
